<?xml version="1.0" encoding="utf-8"?>
<svg xmlns="http://www.w3.org/2000/svg" xmlns:xlink="http://www.w3.org/1999/xlink" version= "1.1" width="1080px" height="2240px" viewBox="0 0 1080 2240">
<rect x="0" y="0" width="1080" height="2240" fill="rgb(255,255,255)"/>
<g id="layer1">
<g style="fill:rgb(170,29,34); fill-opacity:0.8392157; stroke-linejoin: miter">
<path d="M700.4086,1190.5786L700.4112,1190.5773L700.42126,1190.5721L700.4187,1190.5735C729.60547,1175.1484,758.7859,1159.7264,786.5181,1142.6611L786.5181,1142.6611C814.2544,1125.5934,840.5398,1106.884,863.8083,1088.9486L863.8083,1088.9486C887.08,1071.0107,907.3064,1053.8666,919.9783,1035.6295L919.9783,1035.6295C932.6468,1017.3972,937.77234,998.0612,942.905,978.69147L943.2244,978.8685C930.3438,992.59796,917.4287,1006.3685,902.418,1012.96L902.418,1012.96C896.75275,1015.4478,890.7935,1016.911,884.29,1018.5085L884.29,1018.5085C876.42316,1020.44086,867.74786,1022.57227,857.78094,1026.9489L857.78094,1026.9489C854.1442,1028.5458,850.33167,1030.4437,846.3274,1032.7386L846.3274,1032.7386C822.2619,1046.5305,791.1427,1074.7188,765.68536,1103.4735L765.68536,1103.4735C740.2313,1132.2245,720.4457,1161.5317,700.6527,1190.8505L700.4086,1190.5786 M700.58466,1190.9116C700.5083,1190.952,700.41425,1190.9353,700.3565,1190.871C700.29877,1190.8066,700.29224,1190.7113,700.3406,1190.6398L700.3406,1190.6398C720.13226,1161.323,739.9303,1131.9962,765.4034,1103.2238L765.4034,1103.2238C790.8715,1074.4568,822.0238,1046.2327,846.14014,1032.4117L846.14014,1032.4117C850.15466,1030.111,853.98236,1028.2054,857.62946,1026.6039L857.62946,1026.6039C867.62885,1022.213,876.33356,1020.07513,884.20013,1018.14276L884.20013,1018.14276C890.7092,1016.5439,896.63666,1015.0874,902.26654,1012.6152L902.26654,1012.6152C917.19244,1006.0609,930.05396,992.35645,942.94977,978.61084C943.0088,978.5479,943.10297,978.53314,943.1784,978.57495C943.25385,978.61676,943.29126,978.7045,943.26917,978.7879L943.26917,978.7879C938.1381,998.15125,932.9992,1017.5501,920.2876,1035.8444L920.2876,1035.8444C907.5788,1054.1345,887.30884,1071.3099,864.03827,1089.247L864.03827,1089.247C840.76184,1107.1885,814.4654,1125.9058,786.7155,1142.9819L786.7155,1142.9819C758.97296,1160.0536,729.77747,1175.4836,700.5947,1190.9065L700.59216,1190.9078L700.5821,1190.913 Z"/>
</g>
<g style="fill:rgb(170,29,34); fill-opacity:0.8392157; stroke-linejoin: miter">
<path d="M856.3138,967.73413L856.3138,967.73413C854.92773,943.3458,853.5421,918.9931,840.7517,892.2954L840.7517,892.2954C827.9577,865.5903,803.7466,836.5291,777.98645,816.5275L777.98645,816.5275C752.22974,796.52856,724.9225,785.58453,697.5895,774.6312L697.5831,774.62854L583.21387,723.844L583.2012,723.83777C554.7766,708.5665,526.33167,693.2849,504.75772,676.43994L504.75772,676.43994C483.17847,659.5908,468.47516,641.17975,458.14786,624.0936L458.14786,624.0936C447.8206,607.00757,441.87024,591.24786,435.92487,575.50244L436.28488,575.39496C441.16257,597.3038,446.03824,619.2024,452.0846,637.81067L452.0846,637.81067C458.12857,656.4117,465.34207,671.72485,480.03787,691.7037L480.03787,691.7037C494.73798,711.68835,516.92096,736.33594,542.0411,756.4657L542.0411,756.4657C567.16113,776.59546,595.2228,792.2115,623.30023,807.8357L623.30347,807.8375L674.7764,837.8207L674.764,837.814C698.8174,849.5097,722.879,861.20905,748.0526,877.86224L748.0526,877.86224C773.22314,894.5134,799.5071,916.1187,817.2006,937.4903L817.2006,937.4903C834.89777,958.8662,843.99274,979.9988,853.079,1001.1085L852.71875,1001.16284L856.3146,967.7033L856.3138,967.73413 M856.6899,967.71277L856.6891,967.7436L853.09326,1001.2031C853.0841,1001.2882,853.01874,1001.35645,852.9341,1001.3692C852.8494,1001.38196,852.76685,1001.33606,852.73303,1001.25745L852.73303,1001.25745C843.64606,980.146,834.5693,959.0602,816.91046,937.7305L816.91046,937.7305C799.2484,916.39703,772.99677,894.8152,747.84485,878.17633L747.84485,878.17633C722.6955,861.5392,698.6535,849.8489,674.5993,838.1528L674.58685,838.1461L623.1139,808.16296L623.1171,808.1648C595.0439,792.5429,566.9549,776.9128,541.8056,756.75964L541.8056,756.75964C516.6563,736.6065,494.45102,711.9339,479.73447,691.9268L479.73447,691.9268C465.01358,671.9139,457.7822,656.5645,451.72638,637.9271L451.72638,637.9271C445.67355,619.29895,440.7937,597.3804,435.9172,575.47687C435.89572,575.38043,435.95248,575.2837,436.04718,575.25543C436.14188,575.2272,436.2423,575.2769,436.27722,575.3694L436.27722,575.3694C442.22302,591.1159,448.16302,606.846,458.47018,623.8988L458.47018,623.8988C468.777,640.95105,483.45093,659.3257,504.98953,676.14307L504.98953,676.14307C526.53296,692.96423,554.9468,708.2304,583.3794,723.506L583.3667,723.49976L697.73596,774.2843L697.7296,774.2816C725.05786,785.233,752.4131,796.1941,778.2174,816.23004L778.2174,816.23004C804.0178,836.26294,828.2692,865.3686,841.09143,892.1327L841.09143,892.1327C853.9175,918.9048,855.304,943.3274,856.6899,967.71277 Z"/>
</g>
<g style="fill:rgb(170,29,34); fill-opacity:0.8392157; stroke-linejoin: miter">
<path d="M631.36865,915.5603L631.36865,915.5603C601.95184,914.4385,572.50104,913.317,544.7908,903.3514L544.7908,903.3514C517.0809,893.38586,491.12497,874.58264,473.5851,857.68835L473.5851,857.68835C456.03986,840.7888,446.91104,825.79407,437.79147,810.8153C437.74423,810.73773,437.7591,810.6376,437.82675,810.577C437.8944,810.5165,437.99564,810.51276,438.06747,810.5683L438.06747,810.5683L438.52487,810.9217L438.52487,810.9217C455.13934,823.75916,471.70886,836.55365,483.8533,845.0134L483.8533,845.0134C493.49756,851.73157,500.34683,855.71375,508.49268,860.4499L508.49268,860.4499C510.70032,861.73346,512.99335,863.06665,515.47095,864.52924L515.47095,864.52924C516.7976,865.31244,518.1857,866.1378,519.61414,866.9872L519.61414,866.9872C521.15784,867.9051,522.7618,868.8589,524.4262,869.84143L524.4262,869.84143C534.6998,875.90625,547.2986,883.08154,562.51074,889.86017L562.51074,889.86017C582.47577,898.7567,606.952,906.97406,631.4358,915.1936C631.5246,915.2234,631.57794,915.3139,631.5611,915.406C631.54425,915.4981,631.4622,915.56384,631.36865,915.5603L631.36865,915.5603 M631.38306,915.18396L631.3159,915.55066C606.8362,907.3325,582.34314,899.1099,562.3574,890.20416L562.3574,890.20416C547.1251,883.41656,534.5133,876.2336,524.2347,870.1658L524.2347,870.1658C522.5559,869.17474,520.97906,868.237,519.42163,867.3109L519.42163,867.3109C518.00696,866.4697,516.5917,865.62823,515.2794,864.8536L515.2794,864.8536C512.7976,863.3884,510.5167,862.0624,508.30334,860.77545L508.30334,860.77545C500.1555,856.03815,493.29657,852.0506,483.63803,845.3225L483.63803,845.3225C471.48563,836.8572,454.90466,824.0539,438.2946,811.2198L438.2946,811.2198L437.8372,810.8664L438.1132,810.6194C447.2307,825.59485,456.3386,840.55365,473.8464,857.4171L473.8464,857.4171C491.35962,874.28577,517.272,893.0544,544.9182,902.997L544.9182,902.997C572.5639,912.93945,601.95624,914.06177,631.38306,915.18396 Z"/>
</g>
<g style="fill:rgb(170,29,34); fill-opacity:0.8392157; stroke-linejoin: miter">
<path d="M797.05115,995.2205L797.05115,995.2205C773.45416,987.60223,749.86475,979.98706,721.8281,975.2373L721.8281,975.2373C709.6884,973.1807,696.7182,971.6615,683.1434,970.0714L683.1434,970.0714C668.2718,968.32947,652.67975,966.50305,636.69434,963.7949L636.69434,963.7949C633.5679,963.2653,630.4262,962.7019,627.27167,962.0988L627.27167,962.0988C593.2706,955.59796,557.7824,944.48267,531.8642,931.1353L531.8642,931.1353C505.93994,917.78485,489.59616,902.2041,473.26895,886.64C473.19986,886.57416,473.19098,886.467,473.24832,886.3906C473.30566,886.3143,473.4111,886.2929,473.49362,886.34094L473.49362,886.34094C491.7508,896.965,509.98526,907.575,535.63214,913.325L535.63214,913.325C549.9172,916.5277,566.50055,918.223,584.13776,920.0259L584.13776,920.0259C598.1738,921.4607,612.872,922.96313,627.5891,925.3477L627.5891,925.3477C660.7922,930.7275,694.0865,940.59686,718.2021,948.1724L718.2021,948.1724C742.31396,955.7468,757.28766,961.0388,768.9448,968.45404L768.9448,968.45404C780.604,975.8705,788.9366,985.4053,797.2508,994.91736C797.3065,994.9811,797.31287,995.0742,797.2663,995.1449C797.2197,995.2156,797.1317,995.2465,797.05115,995.2205L797.05115,995.2205 M797.1669,994.8621L796.9672,995.1653C788.64923,985.64886,780.3493,976.15485,768.7427,968.7718L768.7427,968.7718C757.13416,961.3875,742.2082,956.10846,718.0892,948.5318L718.0892,948.5318C693.9758,940.957,660.7044,931.09485,627.5288,925.71954L627.5288,925.71954C612.8223,923.3367,598.13934,921.8358,584.0994,920.40063L584.0994,920.40063C566.46967,918.5985,549.8597,916.9008,535.54974,913.69257L535.54974,913.69257C509.84015,907.9285,491.56088,897.29034,473.30417,886.6665L473.52884,886.36743C489.855,901.93054,506.16522,917.47723,532.0367,930.8005L532.0367,930.8005C557.914,944.1268,593.3654,955.2326,627.34235,961.7288L627.34235,961.7288C630.49194,962.331,633.6354,962.8947,636.7572,963.4236L636.7572,963.4236C652.7326,966.13,668.3134,967.955,683.1872,969.69727L683.1872,969.69727C696.7593,971.28705,709.7407,972.8076,721.891,974.86597L721.891,974.86597C749.959,979.62103,773.57056,987.244,797.1669,994.8621 Z"/>
</g>
<g style="fill:rgb(170,29,34); fill-opacity:0.8392157; stroke-linejoin: miter">
<path d="M507.2179,949.4983L507.2179,949.4983C513.54254,958.93646,519.85406,968.3536,528.1997,976.32166L528.1997,976.32166C536.5417,984.2863,546.9237,990.8094,561.9363,997.2955L561.9363,997.2955C576.9526,1003.78314,596.58716,1010.2281,612.70483,1013.1635L612.70483,1013.1635C619.33203,1014.3705,625.36224,1014.98364,631.5283,1014.98364L631.5283,1014.98364C640.3538,1014.98364,649.4634,1013.72766,661.00824,1011.1514L661.00824,1011.1514C680.62335,1006.77423,707.2415,998.59186,733.87177,990.40564L733.9174,990.7737C704.40576,989.24695,674.8731,987.7189,652.2637,985.8626L652.2637,985.8626C630.13806,984.0461,614.62445,981.9142,599.49084,979.83466L599.49084,979.83466L598.4819,979.696L598.48193,979.696L598.0335,979.63446L598.03345,979.63446L597.5377,979.56635L597.5377,979.56635C582.4096,977.48804,567.49756,975.4098,552.58936,970.5311L552.58936,970.5311C537.37396,965.55194,522.1641,957.6557,506.9747,949.7703L507.2179,949.4983 M506.90503,949.708C506.85715,949.63654,506.86377,949.5417,506.92108,949.4776C506.9784,949.4135,507.07187,949.39636,507.14822,949.436L507.14822,949.436C522.3441,957.3247,537.5251,965.205,552.70654,970.1731L552.70654,970.1731C567.5787,975.04,582.4556,977.11414,597.589,979.1932L597.589,979.1932L598.0847,979.2613L598.08466,979.2613L598.5331,979.3228L598.53314,979.3228L599.5421,979.4615L599.5421,979.4615C614.6759,981.5411,630.17834,983.6715,652.29443,985.48724L652.29443,985.48724C674.892,987.3425,704.42816,988.871,733.9368,990.3976C734.0281,990.4023,734.1028,990.4718,734.114,990.56244C734.12524,990.6531,734.0698,990.7388,733.9825,990.7656L733.9825,990.7656C707.35583,998.9507,680.7252,1007.1374,661.0903,1011.519L661.0903,1011.519C649.53015,1014.09863,640.3911,1015.36035,631.5283,1015.36035L631.5283,1015.36035C625.33655,1015.36035,619.2824,1014.7443,612.6373,1013.5341L612.6373,1013.5341C596.4854,1010.59247,576.82324,1004.1375,561.78687,997.6412L561.78687,997.6412C546.7475,991.14355,536.3232,984.5985,527.9396,976.5941L527.9396,976.5941C519.5595,968.59314,513.2258,959.14044,506.90503,949.708 Z"/>
</g>
<g style="fill:rgb(243,67,54); fill-opacity:1.0; stroke-linejoin: miter">
<path d="M540.40814,1044.4403L540.40814,1044.4403C549.6796,1049.1661,558.9339,1053.8842,578.29767,1054.6421L578.29767,1054.6421C580.2443,1054.7183,582.30414,1054.7546,584.4461,1054.7546L584.4461,1054.7546C603.62384,1054.7546,630.16187,1051.8666,656.71814,1048.9763L656.72327,1048.9758L657.025,1048.9513L657.0251,1048.9513C676.0007,1047.4138,694.9275,1045.8567,710.91345,1040.2811L710.91345,1040.2811C717.65674,1037.9292,723.87354,1034.864,730.2618,1031.7144L730.2618,1031.7144C736.96826,1028.4077,743.85767,1025.011,751.7032,1022.2746L751.7032,1022.2746C754.1914,1021.40674,756.7655,1020.6083,759.4711,1019.8966L759.4711,1019.8966C778.8189,1014.8074,804.3626,1014.32684,829.87244,1013.8458L829.83014,1014.2168C806.3121,1008.3167,782.82306,1002.4249,760.27966,1002.4249L760.27966,1002.4249C754.38306,1002.4249,748.5494,1002.82837,742.80096,1003.74L742.80096,1003.74C722.5817,1006.94653,703.3603,1016.44366,685.72296,1025.1597L685.72296,1025.1597C679.17487,1028.3956,672.8478,1031.5226,666.7702,1034.1776L666.7702,1034.1776C644.3237,1043.9835,625.3366,1047.3273,604.83136,1048.0192L604.83136,1048.0192C601.9427,1048.1167,599.057,1048.1611,596.1129,1048.1611L596.1129,1048.1611C578.15607,1048.1611,559.2188,1046.4775,540.30597,1044.7958L540.40814,1044.4403 M540.2371,1044.776C540.15674,1044.735,540.11676,1044.6428,540.14166,1044.5562C540.16656,1044.4695,540.24945,1044.4126,540.3393,1044.4205L540.3393,1044.4205C559.2558,1046.1027,578.17566,1047.7844,596.1129,1047.7844L596.1129,1047.7844C599.05786,1047.7844,601.93,1047.7402,604.81866,1047.6427L604.81866,1047.6427C625.2839,1046.9521,644.2223,1043.6167,666.61945,1033.8324L666.61945,1033.8324C672.68964,1031.1805,679.00397,1028.0599,685.5561,1024.822L685.5561,1024.822C703.1838,1016.11084,722.4564,1006.5851,742.742,1003.36804L742.742,1003.36804C748.51196,1002.453,754.3663,1002.0482,760.27966,1002.0482L760.27966,1002.0482C782.8779,1002.0482,806.4141,1007.954,829.9218,1013.85144C830.01337,1013.8744,830.0738,1013.9616,830.0631,1014.0554C830.0524,1014.14923,829.97394,1014.22064,829.8795,1014.2224L829.8795,1014.2224C804.354,1014.7037,778.8614,1015.18567,759.56696,1020.26086L759.56696,1020.26086C756.8724,1020.9696,754.30615,1021.76556,751.8272,1022.6302L751.8272,1022.6302C744.00806,1025.3574,737.1356,1028.7452,730.4283,1032.0522L730.4283,1032.0522C724.043,1035.2004,717.80646,1038.2759,711.0375,1040.6368L711.0375,1040.6368C694.99744,1046.2313,676.019,1047.7903,657.0555,1049.3268L657.05554,1049.3268L656.7538,1049.3513L656.7589,1049.3508C630.2116,1052.2401,603.64825,1055.1313,584.4461,1055.1313L584.4461,1055.1313C582.3056,1055.1313,580.22955,1055.0947,578.2829,1055.0186L578.2829,1055.0186C558.8419,1054.2577,549.5305,1049.513,540.2371,1044.776 Z"/>
</g>
<g style="fill:rgb(170,29,34); fill-opacity:0.8392157; stroke-linejoin: miter">
<path d="M761.33563,1040.6292L761.33563,1040.6292C717.6734,1076.9442,673.99457,1113.2738,637.47876,1135.0361L637.47876,1135.0361C600.95233,1156.8048,571.5956,1163.9974,542.2584,1171.186L542.21234,1171.1915C527.78735,1171.0934,513.3462,1170.9955,501.08765,1169.2087L501.08765,1169.2087C488.82483,1167.4214,478.7538,1163.9454,468.69745,1160.4751C468.61633,1160.4471,468.56433,1160.3678,468.57114,1160.2822C468.57794,1160.1967,468.64172,1160.1266,468.7263,1160.1117L468.72726,1160.1115L468.73587,1160.11L468.7349,1160.1102C496.06757,1155.308,523.3985,1150.5054,549.27856,1143.61L549.27856,1143.61C575.16364,1136.7133,599.60815,1127.721,624.0624,1118.725L624.0339,1118.7383L761.1217,1040.3209C761.2065,1040.2725,761.3143,1040.2968,761.36993,1040.377C761.4256,1040.4572,761.4107,1040.5667,761.33563,1040.6292L761.33563,1040.6292 M761.0948,1040.3396L761.3087,1040.6478L624.2209,1119.0652L624.1924,1119.0785C599.7414,1128.0732,575.27924,1137.0723,549.3755,1143.974L549.3755,1143.974C523.4764,1150.8745,496.1302,1155.6792,468.80008,1160.4811L468.7991,1160.4813L468.7905,1160.4828L468.8203,1160.1191C478.8791,1163.5903,488.91806,1167.0542,501.14197,1168.8359L501.14197,1168.8359C513.37195,1170.6185,527.7803,1170.7167,542.2149,1170.8148L542.1688,1170.8203C571.5006,1163.633,600.81134,1156.4503,637.2859,1134.7126L637.2859,1134.7126C673.76984,1112.9692,717.42487,1076.6611,761.0948,1040.3396 Z"/>
</g>
<g style="fill:url(#grad0); fill-opacity:1.0; stroke-linejoin: miter">
<path d="M743.1554,1076.914L743.1554,1076.914L816.4623,1030.14C816.543,1030.0885,816.64966,1030.1058,816.70996,1030.1803C816.77026,1030.2548,816.7651,1030.3627,816.6978,1030.4309L816.6978,1030.4309C800.03564,1047.3528,783.48413,1064.1627,764.446,1083.3602L764.446,1083.3602L763.5963,1084.2169L763.5963,1084.2169L762.74066,1085.0797L762.74066,1085.0797C744.1736,1103.8022,723.6125,1124.6493,708.428,1147.5306L708.428,1147.5306C692.77734,1171.1145,682.8396,1196.8579,679.8393,1218.2545L679.8393,1218.2545C676.84094,1239.637,680.77167,1256.6606,696.0112,1272.2775L696.0112,1272.2775C711.27313,1287.9172,737.8796,1302.1516,764.5247,1316.4038C764.607,1316.4478,764.64465,1316.5454,764.6132,1316.6333C764.5818,1316.7212,764.4908,1316.7727,764.39923,1316.7545L764.39923,1316.7545C737.6436,1311.4392,710.86334,1306.1195,690.29083,1298.1611L690.29083,1298.1611C669.71094,1290.2,655.3233,1279.5919,646.3651,1264.8765L646.3651,1264.8765C637.40497,1250.1578,633.89014,1231.351,640.9351,1206.4055L640.9351,1206.4055C647.97614,1181.4741,665.5677,1150.4015,684.36127,1127.7975L684.36127,1127.7975C703.1593,1105.1881,723.1641,1091.0464,743.148,1076.919L743.1554,1076.914 M743.35803,1077.2316L743.3654,1077.2266C723.38025,1091.3549,703.41345,1105.4716,684.65094,1128.0382L684.65094,1128.0382C665.8831,1150.6112,648.32104,1181.6384,641.29755,1206.5078L641.29755,1206.5078C634.2779,1231.3636,637.78687,1250.0608,646.6869,1264.6807L646.6869,1264.6807C655.5889,1279.3038,669.8968,1289.8679,690.4267,1297.8098L690.4267,1297.8098C710.9627,1305.754,737.7061,1311.0677,764.4726,1316.3851L764.3471,1316.7358C737.72217,1302.4944,711.0544,1288.2322,695.7417,1272.5404L695.7417,1272.5404C680.40533,1256.8243,676.4551,1239.6765,679.46625,1218.2023L679.46625,1218.2023C682.4755,1196.7415,692.43756,1170.9453,708.11414,1147.3224L708.11414,1147.3224C723.32294,1124.4043,743.9098,1103.5334,762.4732,1084.8146L762.4732,1084.8146L763.32886,1083.9518L763.32886,1083.9518L764.1785,1083.0951L764.1785,1083.0951C783.19305,1063.9214,799.79034,1047.0652,816.4294,1030.1667L816.6649,1030.4576L743.35803,1077.2316 Z"/>
</g>
<g style="fill:rgb(170,29,34); fill-opacity:0.8392157; stroke-linejoin: miter">
</g>
<g style="fill:rgb(170,29,34); fill-opacity:0.8392157; stroke-linejoin: miter">
</g>
<g style="fill:rgb(170,29,34); fill-opacity:1.0; stroke-linejoin: miter">
<path d="M105.96813,521.81274L105.96813,521.81274L105.96813,521.81274L105.96813,521.81274L105.96813,521.81274L105.96813,521.81274L105.96813,521.81274L105.96813,521.81274L105.96813,521.81274L105.96813,521.81274 M105.96813,522.18945L105.96813,522.18945L105.96813,522.18945L105.96813,522.18945L105.96813,522.18945L105.96813,522.18945L105.96813,522.18945L105.96813,522.18945L105.96813,522.18945 Z"/>
</g>
<g style="fill:rgb(170,29,34); fill-opacity:1.0; stroke-linejoin: miter">
<path d="M105.96817,521.81274L105.96817,521.81274L105.96817,521.81274L105.96817,521.81274L105.96817,521.81274L105.96817,521.81274L105.96817,521.81274L105.96817,521.81274L105.96817,521.81274L105.96817,521.81274 M105.96817,522.18945L105.96817,522.18945L105.96817,522.18945L105.96817,522.18945L105.96817,522.18945L105.96817,522.18945L105.96817,522.18945L105.96817,522.18945L105.96817,522.18945 Z"/>
</g>
<g style="fill:rgb(170,29,34); fill-opacity:1.0; stroke-linejoin: miter">
<path d="M1327.087,1433.9971L1327.087,1433.9971L1327.7573,1421.3143L1327.7572,1421.3179L1328.1827,1408.6246L1328.1826,1408.6283L1328.3632,1395.9291L1328.3632,1395.9327L1328.2986,1383.2325L1328.2987,1383.2362L1327.9893,1370.5396L1327.9894,1370.5432L1327.4164,1357.5085L1327.4165,1357.5122L1326.5854,1344.4916L1326.5858,1344.4954L1325.4967,1331.4937L1325.497,1331.4973L1324.1505,1318.5198L1324.151,1318.5236L1322.5475,1305.5753C1322.5347,1305.472,1322.6079,1305.378,1322.7112,1305.3652C1322.8145,1305.3524,1322.9084,1305.4257,1322.9213,1305.5289L1322.9213,1305.5289L1324.5248,1318.4772L1324.5253,1318.481L1325.8717,1331.4585L1325.872,1331.4622L1326.961,1344.4639L1326.9614,1344.4677L1327.7925,1357.4883L1327.7926,1357.492L1328.3656,1370.5266L1328.3657,1370.5303L1328.6752,1383.2269L1328.6753,1383.2306L1328.7399,1395.9308L1328.7399,1395.9344L1328.5593,1408.6337L1328.5592,1408.6373L1328.1337,1421.3306L1328.1335,1421.3341L1327.4633,1434.0168C1327.4578,1434.1207,1327.3691,1434.2006,1327.2653,1434.1951C1327.1614,1434.1896,1327.0815,1434.101,1327.087,1433.9971 Z"/>
</g>
<g style="fill:rgb(170,29,34); fill-opacity:1.0; stroke-linejoin: miter">
<path d="M447.24756,563.928L447.24756,563.928L447.24756,563.928L447.24756,563.928L447.24756,563.928L447.24756,563.928L447.24756,563.928L447.24756,563.928L447.24756,563.928L447.24756,563.928 M447.24756,564.3047L447.24756,564.3047L447.24756,564.3047L447.24756,564.3047L447.24756,564.3047L447.24756,564.3047L447.24756,564.3047L447.24756,564.3047L447.24756,564.3047 Z"/>
</g>
<g style="fill:rgb(170,29,34); fill-opacity:1.0; stroke-linejoin: miter">
<path d="M818.79065,784.6018L818.79065,784.6018L818.79065,784.6018L818.79065,784.6018L818.79065,784.6018L818.79065,784.6018L818.79065,784.6018L818.79065,784.6018L818.79065,784.6018L818.79065,784.6018 M818.79065,784.9785L818.79065,784.9785L818.79065,784.9785L818.79065,784.9785L818.79065,784.9785L818.79065,784.9785L818.79065,784.9785L818.79065,784.9785L818.79065,784.9785 Z"/>
</g>
<g style="fill:rgb(170,29,34); fill-opacity:1.0; stroke-linejoin: miter">
<path d="M873.55286,1011.86536L873.55347,1011.86273L873.55475,1011.85724L873.55414,1011.85986C876.598,997.95154,879.6379,984.0594,880.77246,970.1734L880.77246,970.1734C881.90717,956.2862,881.1366,942.4027,880.0046,931.2955L880.0046,931.2955C878.8728,920.1903,877.38074,911.87524,875.019,904.5558L875.019,904.5558C872.6563,897.23364,869.4213,890.89825,866.1778,884.547C866.14435,884.48145,866.15125,884.4026,866.1957,884.3439C866.2401,884.28516,866.31415,884.2571,866.38635,884.2715L866.38635,884.2715C873.0395,885.60004,879.66956,886.92303,885.5866,886.9524L885.5867,886.9524C885.67706,886.9529,885.69824,886.9529,885.7888,886.9529L885.7888,886.9529C891.6183,886.9529,896.76746,885.70465,901.94025,884.44995L901.88763,884.8017C892.26654,879.1028,882.6008,873.3799,877.3228,867.31824L877.3228,867.31824C872.0282,861.23755,871.15045,854.8234,870.27704,848.4652C870.2651,848.378,870.3139,848.2938,870.39557,848.261C870.47723,848.22815,870.57074,848.255,870.6225,848.32623L870.6225,848.32623C875.741,855.369,880.83496,862.3744,885.97235,866.2111L885.97235,866.2111C891.094,870.0361,896.2671,870.71533,901.4898,871.3984L901.28516,871.6561L901.2846,871.65466L901.2845,871.65436C899.5512,867.0088,897.82513,862.38367,894.7617,857.52716L894.7617,857.52716C893.613,855.70605,892.26935,853.8429,890.9223,851.97546L890.9223,851.97546C889.5649,850.0937,888.198,848.19885,887.0146,846.32275L887.0146,846.32275C886.2419,845.0978,885.54736,843.8813,884.9814,842.6751L884.9814,842.6751C882.68646,837.7846,882.5535,833.15265,882.41974,828.5615C882.4173,828.47815,882.469,828.4028,882.54767,828.37494C882.62634,828.3471,882.71387,828.3733,882.7644,828.4397L882.7645,828.4398L882.82513,828.51965L882.825,828.51953C889.6938,837.5484,896.5421,846.5296,905.0956,851.9784L905.0956,851.9784C913.6719,857.4417,923.97626,859.36237,934.3266,861.28894L934.3174,861.2875C953.6636,863.9243,973.0271,866.563,986.17896,870.22327L986.17896,870.22327C999.3358,873.88495,1006.2942,878.5739,1010.0937,883.00946L1010.0937,883.00946C1013.8984,887.451,1014.5179,891.6209,1015.13226,895.744L1015.07245,895.63116C1024.5913,904.4022,1034.1383,913.1978,1039.2745,920.7626L1039.2745,920.7626C1044.4237,928.3463,1045.1438,934.6946,1045.8608,941.0059C1045.8689,941.0768,1045.8369,941.14624,1045.778,941.18634C1045.719,941.22644,1045.6426,941.2305,1045.5797,941.197L1045.5797,941.197C1032.8417,934.40936,1020.1527,927.6514,1005.10016,927.6514L1005.10016,927.6514C1004.9098,927.6514,1004.69617,927.6527,1004.50525,927.65497L1004.5052,927.65497C989.17944,927.83636,971.3747,935.05505,953.5214,942.29663L953.5787,942.2605C933.32245,960.7514,913.07623,979.23334,899.78534,990.8699L899.78534,990.8699C886.49634,1002.5048,880.17523,1007.2831,873.8562,1012.0595C873.7921,1012.108,873.7046,1012.1114,873.6369,1012.06805C873.5692,1012.0247,873.5357,1011.94385,873.55286,1011.86536L873.55286,1011.86536 M873.928,1011.9474L873.62463,1011.75323C879.93823,1006.9809,886.25275,1002.2078,899.5324,990.58105L899.5324,990.58105C912.818,978.94916,933.0637,960.4678,953.3199,941.9769L953.37714,941.9408C971.2069,934.7088,989.08673,927.4535,1004.5007,927.27106L1004.5006,927.27106C1004.6915,927.2688,1004.91,927.2675,1005.10016,927.2675L1005.10016,927.2675C1020.2636,927.2675,1033.0358,934.07764,1045.7604,940.85815L1045.4792,941.04926C1044.7632,934.7461,1044.0502,928.4796,1038.9569,920.9783L1038.9569,920.9783C1033.8512,913.4585,1024.3452,904.6975,1014.8123,895.9135C1014.7801,895.88385,1014.759,895.844,1014.7525,895.80066L1014.7525,895.80066C1014.1389,891.6832,1013.5302,887.61145,1009.80206,883.2592L1009.80206,883.2592C1006.0686,878.9008,999.1885,874.2425,986.07605,870.59314L986.07605,870.59314C972.95593,866.94165,953.6221,864.30615,934.2655,861.66785L934.2563,861.6664C923.92126,859.7427,913.5393,857.81256,904.8893,852.30225L904.8893,852.30225C896.267,846.8096,889.3777,837.7669,882.5195,828.75195L882.51935,828.75183L882.45874,828.672L882.8035,828.5503C882.93744,833.14667,883.07227,837.703,885.3289,842.512L885.3289,842.512C885.88556,843.6983,886.5727,844.9026,887.3393,846.1179L887.3393,846.1179C888.51556,847.98267,889.8745,849.8666,891.2337,851.75085L891.2337,851.75085C892.5798,853.61694,893.92975,855.4885,895.0864,857.3223L895.0864,857.3223C898.17377,862.21674,899.9116,866.87646,901.6442,871.5202L901.6441,871.5199L901.64465,871.52136C901.66833,871.5848,901.6571,871.6556,901.6152,871.70825C901.57324,871.7609,901.5068,871.78784,901.44,871.7791L901.44,871.7791C896.22144,871.0966,890.95355,870.41034,885.7426,866.51874L885.7426,866.51874C880.54767,862.63904,875.41724,855.57654,870.31195,848.55194L870.6574,848.41296C871.5314,854.77515,872.4009,861.08093,877.61237,867.06616L877.61237,867.06616C882.8399,873.0698,892.44025,878.75946,902.0833,884.4714C902.1505,884.51117,902.1869,884.5877,902.17535,884.6649C902.1638,884.7421,902.1066,884.80475,902.0307,884.8231L902.0307,884.8231C896.86255,886.0767,891.6706,887.3368,885.7888,887.3368L885.7888,887.3368C885.6987,887.3368,885.675,887.3368,885.5846,887.3363L885.58466,887.3363C879.62305,887.3067,872.9548,885.97455,866.31116,884.64795L866.5197,884.37244C869.7617,890.72076,873.0108,897.08203,875.38434,904.43787L875.38434,904.43787C877.7579,911.7938,879.25336,920.13794,880.38654,931.25653L880.38654,931.25653C881.51984,942.37634,882.2925,956.28534,881.15515,970.20465L881.15515,970.20465C880.0181,984.1201,876.9719,998.03894,873.92926,1011.9419L873.92865,1011.9445L873.92737,1011.95 Z"/>
</g>
<g style="fill:rgb(170,29,34); fill-opacity:1.0; stroke-linejoin: miter">
</g>
<g style="fill:rgb(170,29,34); fill-opacity:1.0; stroke-linejoin: miter">
</g>
<g>
<g style="fill:url(#grad1); fill-opacity:1.0; stroke-linejoin: miter">
<path d="M439.65088,677.22296C439.5826,677.22296,439.5186,677.25604,439.4791,677.3117C439.4396,677.3674,439.42957,677.4388,439.45215,677.5032C445.68814,695.2956,451.97897,713.0217,460.51044,727.94183C469.25394,743.2328,480.35098,755.5755,491.60114,767.7515L491.6013,767.7517L491.60587,767.75665L491.6059,767.7576C502.8549,779.93134,514.2617,791.9437,529.3407,802.2826L529.3407,802.28253C544.42145,812.6227,563.17596,821.2892,591.6341,831.42334C619.5856,841.37714,656.8953,852.7463,694.3759,864.1429C694.39606,864.149,694.4167,864.152,694.4372,864.152C694.4818,864.152,694.5259,864.1378,694.56256,864.1106C694.61615,864.07086,694.64777,864.0081,694.64777,863.9414L694.64777,863.9404C694.64777,863.8612,694.60333,863.7887,694.5327,863.75275C665.4512,848.94946,636.38226,834.12085,607.62756,817.964C578.2454,801.4545,549.19965,783.5629,531.1895,771.67993C513.18054,759.79767,506.21194,753.92755,494.16074,741.13525C482.1065,728.3396,464.97897,708.6313,454.9403,696.6444C445.8095,685.74164,442.55466,681.23975,439.82825,677.3134C439.78888,677.2568,439.72427,677.22296,439.65527,677.22296 Z"/>
</g>
<g style="fill:url(#grad1); fill-opacity:1.0; stroke-linejoin: miter">
<path d="M675.17236,1060.3483C658.6388,1060.3483,642.4062,1060.9176,627.15845,1063.3689C605.4659,1066.8562,585.77673,1074.1527,566.1094,1081.4796C566.01385,1081.5151,565.9576,1081.614,565.97565,1081.7144C565.9919,1081.8044,566.0638,1081.8723,566.15204,1081.8854L566.14636,1081.8864C581.4284,1087.1919,596.73535,1092.4415,613.4585,1092.4415C617.4638,1092.4415,621.5518,1092.1404,625.7394,1091.4672C647.4228,1087.9814,671.80896,1074.5157,696.21387,1060.9668L696.2069,1060.9678C696.3017,1060.9408,696.3673,1060.8513,696.361,1060.7507C696.3542,1060.641,696.264,1060.5548,696.154,1060.5532C689.1269,1060.4489,682.1432,1060.3483,675.17236,1060.3483 Z"/>
</g>
<g>
<g style="fill:url(#grad1); fill-opacity:1.0; stroke-linejoin: miter">
<path d="M696.3736,864.92285L696.3736,864.92285C658.21216,853.3207,620.03986,841.7152,591.5783,831.5798L591.5783,831.5798C563.11444,821.44354,544.3455,812.77203,529.24677,802.41956L529.24677,802.41956C514.14886,792.0677,502.72986,780.0407,491.47916,767.86426L491.4793,767.8644L491.47473,767.85944L491.47458,767.8593C480.22586,755.68494,469.1192,743.3317,460.36624,728.0243L460.36624,728.0243C451.6137,712.71765,445.21814,694.46234,438.8296,676.22876C438.79843,676.1398,438.83786,676.04144,438.9219,675.99866C439.00595,675.9559,439.10864,675.9819,439.16226,676.05945L439.16217,676.0593L439.20273,676.1179L439.20282,676.11804C442.12543,680.3472,445.0814,684.61365,455.0676,696.5378L455.0676,696.5378C465.103,708.5206,482.23273,728.23145,494.28162,741.02136L494.28162,741.02136C506.32233,753.8026,513.28174,759.6656,531.28094,771.5413L531.28094,771.5413C549.28296,783.41895,578.33484,801.3144,607.7089,817.8193L607.7089,817.8193C637.08417,834.3248,666.8007,849.45074,696.51385,864.5748C696.6008,864.61914,696.6396,864.72253,696.6031,864.81305C696.5666,864.90356,696.467,864.95123,696.3736,864.92285L696.3736,864.92285 M696.4832,864.5625L696.34296,864.9105C666.6326,849.78784,636.9059,834.6566,607.5245,818.14764L607.5245,818.14764C578.142,801.63806,549.0844,783.7391,531.07355,771.85565L531.07355,771.85565C513.05334,759.96606,506.0709,754.085,494.00745,741.27966L494.00745,741.27966C481.95163,728.48236,464.81686,708.7656,454.77884,696.7796L454.77884,696.7796C444.78552,684.847,441.82208,680.5708,438.89294,676.33215L438.89304,676.3323L438.85248,676.2737L439.18506,676.10425C445.57632,694.3456,451.961,712.56616,460.6932,727.8373L460.6932,727.8373C469.42276,743.10376,480.502,755.4288,491.75125,767.6037L491.7511,767.6036L491.75568,767.6085L491.75583,767.60864C503.0061,779.7846,514.4001,791.7832,529.4598,802.1089L529.4598,802.1089C544.519,812.43427,563.25256,821.09283,591.70465,831.2249L591.70465,831.2249C620.1566,841.35693,658.318,852.95917,696.4832,864.5625 Z"/>
</g>
<g style="fill:url(#grad1); fill-opacity:1.0; stroke-linejoin: miter">
<path d="M603.59296,888.65607L603.593,888.6561L603.4403,888.6085L603.44025,888.60846C579.0663,881.0019,554.6552,873.3534,520.71893,848.2369L520.71893,848.2369C486.73203,823.0829,443.16818,780.38904,438.67807,774.1433L438.67807,774.1433C438.42624,773.793,438.25333,773.50226,438.24902,773.3078L438.24902,773.30786C438.2473,773.2304,438.27103,773.13306,438.36053,773.06854L438.36093,773.06824C438.41183,773.03174,438.4681,773.0186,438.51462,773.0151L438.51514,773.0151C438.52847,773.0141,438.53146,773.014,438.54453,773.014L438.54453,773.014C439.46887,773.014,445.2383,777.55035,453.17834,783.7705L453.17834,783.7705C464.6394,792.749,480.859,805.45496,494.429,814.15704L494.429,814.15704C516.56836,828.3545,531.668,831.9044,546.07874,835.2924L546.07874,835.2924C548.1498,835.77936,550.24805,836.2729,552.31036,836.7848L552.31036,836.7848C561.113,838.96985,569.99207,841.6624,579.42096,844.52167L579.42096,844.52167C587.59796,847.0013,596.18134,849.6042,605.4945,852.11304L605.4945,852.11304C613.70044,854.3236,622.48364,856.4635,631.2306,858.5945L631.2306,858.5945C639.93896,860.71606,648.6042,862.827,656.6883,865.00476L656.6883,865.00476C660.3214,865.98346,663.8469,866.9787,667.184,867.98865L667.184,867.98865C682.8314,872.72424,694.6383,877.867,710.46735,884.7614L710.46735,884.7614C713.03424,885.87946,715.83215,887.098,718.6527,888.3174L718.65265,888.3173L720.48987,889.1108L720.48987,889.1108L722.4022,889.9367L722.4023,889.93677C742.1878,898.4902,767.69617,909.90485,788.2052,931.65015L788.2052,931.65015C809.9857,954.7435,826.21954,989.6198,825.0228,993.7545L825.0228,993.7545C824.9253,994.0915,824.70325,994.295,824.3654,994.295L824.3654,994.295C823.0573,994.295,819.77686,990.83246,814.98846,985.8179L814.98846,985.8179C806.747,977.1871,793.7385,963.565,777.6334,952.8833L777.6334,952.8833C753.2007,936.67834,721.6227,927.2264,693.44336,918.7932L693.44336,918.7932C689.9498,917.74774,686.55457,916.7317,683.18506,915.7065L683.18506,915.7065C652.6606,906.419,628.1226,897.5361,603.58496,888.6534L603.59296,888.65607 M603.70514,888.2966L603.71313,888.29926C628.2486,897.18115,652.78296,906.06256,683.2947,915.3461L683.2947,915.3461C686.6673,916.3723,690.05365,917.3856,693.5514,918.4324L693.5514,918.4324C721.7181,926.86176,753.3534,936.32776,777.84155,952.56946L777.84155,952.56946C793.9865,963.2776,807.0207,976.9282,815.2609,985.55774L815.2609,985.55774C820.1634,990.6918,823.27026,993.9183,824.3654,993.9183L824.3654,993.9183C824.5025,993.9183,824.60016,993.86,824.661,993.6498L824.661,993.6498C825.7885,989.7542,809.7475,955.04,787.93115,931.90857L787.93115,931.90857C767.4809,910.2256,742.0392,898.8362,722.25287,890.2825L722.2529,890.28253L720.3406,889.4566L720.3406,889.4566L718.50336,888.66315L718.5033,888.6631C715.6956,887.4493,712.8703,886.21893,710.31696,885.10675L710.31696,885.10675C694.48663,878.2118,682.69836,873.0775,667.0749,868.3491L667.0749,868.3491C663.74646,867.3418,660.21674,866.3453,656.5903,865.3684L656.5903,865.3684C648.51086,863.1919,639.8513,861.0824,631.1415,858.96045L631.1415,858.96045C622.396,856.82983,613.6071,854.68854,605.3965,852.4767L605.3965,852.4767C596.07837,849.9665,587.4867,847.36115,579.3117,844.88214L579.3117,844.88214C569.87946,842.02185,561.01263,839.33307,552.21967,837.1504L552.21967,837.1504C550.1545,836.63776,548.0694,836.1474,545.99255,835.6591L545.99255,835.6591C531.56604,832.2674,516.41833,828.7056,494.22568,814.47406L494.22568,814.47406C480.63785,805.7605,464.40323,793.04254,452.94604,784.067L452.94604,784.067C444.88553,777.7525,439.29602,773.3907,438.54453,773.3907L438.54453,773.3907C438.53897,773.3907,438.54706,773.3904,438.5426,773.3907L438.54312,773.3907C438.54132,773.3908,438.55862,773.38995,438.58035,773.3744L438.58075,773.3741C438.62427,773.3427,438.6256,773.3,438.6256,773.29944L438.6256,773.2995C438.6268,773.3532,438.7098,773.5422,438.98392,773.92346L438.98392,773.92346C443.44034,780.1223,486.96713,822.78827,520.94305,847.93414L520.94305,847.93414C554.8284,873.01294,579.19183,880.64655,603.5524,888.24896L603.55237,888.2489L603.7051,888.2965 Z"/>
</g>
<g style="fill:url(#grad1); fill-opacity:1.0; stroke-linejoin: miter">
<path d="M696.9438,1060.7506L696.9438,1060.7506C672.33105,1074.4165,647.6763,1088.1088,625.76575,1091.6312L625.76575,1091.6312C621.5695,1092.3059,617.4723,1092.6077,613.4593,1092.6077L613.4593,1092.6077C596.50867,1092.6077,581.0206,1087.2268,565.5665,1081.8596C565.4915,1081.8336,565.4409,1081.7633,565.44,1081.6838C565.4391,1081.6044,565.48816,1081.533,565.56256,1081.5052L565.56256,1081.5052C585.39124,1074.1188,605.2405,1066.7242,627.1321,1063.205L627.1321,1063.205C642.39014,1060.752,658.6355,1060.1821,675.1724,1060.1821L675.1724,1060.1821C682.34656,1060.1821,689.6014,1060.2898,696.83044,1060.3972L696.83044,1060.3972L696.85516,1060.3976C696.9405,1060.3988,697.0143,1060.4573,697.03503,1060.54C697.0558,1060.6228,697.0184,1060.7092,696.9438,1060.7506L696.9438,1060.7506 M696.7609,1060.4213L696.84955,1060.7743L696.8248,1060.7739L696.8248,1060.7739C689.57385,1060.6661,682.36475,1060.5588,675.1724,1060.5588L675.1724,1060.5588C658.6421,1060.5588,642.41956,1061.1287,627.1919,1063.5768L627.1919,1063.5768C605.3418,1067.0895,585.5284,1074.4696,565.69403,1081.8583L565.69006,1081.5039C581.15356,1086.8744,596.58234,1092.231,613.4593,1092.231L613.4593,1092.231C617.45386,1092.231,621.52997,1091.9308,625.70593,1091.2594L625.70593,1091.2594C647.5366,1087.7499,672.12787,1074.0985,696.7609,1060.4213 Z"/>
</g>
<g style="fill:url(#grad1); fill-opacity:1.0; stroke-linejoin: miter">
<path d="M824.03925,871.2133L824.0259,871.214L824.025,871.21497L824.03925,871.2133 Z M824.0269,871.2141C824.0374,871.2152,824.0457,871.22327,824.04675,871.23413L824.0468,871.2351C824.0476,871.2463,824.03845,871.25665,824.0267,871.25775L824.02234,871.2587C824.012,871.2567,824.0037,871.2489,824.0025,871.2383C824.00134,871.226,824.01,871.2153,824.02246,871.2141 Z M436.86618,577.7949C436.8031,577.7949,436.74335,577.82324,436.70334,577.872C436.66333,577.9208,436.64734,577.9849,436.6597,578.0468L436.65973,578.0478C436.6628,578.0633,436.66782,578.07904,436.6745,578.09393L436.67014,578.0949C441.3519,599.10895,446.07877,620.00867,451.8843,637.87573C457.93488,656.49695,465.1585,671.8307,479.86826,691.82837C494.57776,711.82574,516.7727,736.4868,541.9094,756.63C567.0462,776.7732,595.122,792.39636,623.19745,808.0194L623.1975,808.0204L623.19824,808.01984L623.1979,808.01965L623.1979,808.0206L674.6704,838.0036C674.6876,838.0136,674.7058,838.021,674.7245,838.02576L674.7177,838.02673C698.7544,849.71326,722.794,861.4052,747.9364,878.0378C773.0962,894.68195,799.36273,916.27466,817.0384,937.6246C834.53,958.75226,843.6089,979.64185,852.602,1000.53394C852.63574,1000.61237,852.71265,1000.66125,852.79535,1000.66125C852.8094,1000.66125,852.82367,1000.65985,852.8379,1000.6569C852.92865,1000.63824,852.9956,1000.5628,853.0049,1000.4722L853.00476,1000.4732L856.5207,967.7576L856.52313,967.7586C856.5245,967.746,856.5248,967.73413,856.5241,967.72217C855.13806,943.3348,853.75226,918.9443,840.9416,892.2044C828.13184,865.4662,803.89844,836.38043,778.1156,816.3612C752.3329,796.3421,725.0004,785.38885,697.67096,774.437L697.67084,774.438L697.66626,774.4351L583.30365,723.6535L583.2975,723.65045L583.2904,723.6466L583.2787,723.6402L583.27734,723.63947C554.8556,708.36993,526.4383,693.10114,504.88733,676.274C483.33127,659.44293,468.64374,641.0516,458.32803,623.9847C448.56763,607.8363,442.72046,592.8736,437.083,577.97284L437.0786,577.9738C437.06293,577.8721,436.97577,577.7949,436.87057,577.7949 Z"/>
</g>
<g style="fill:url(#grad1); fill-opacity:1.0; stroke-linejoin: miter">
<path d="M438.66818,773.2114C438.5958,773.2114,438.52847,773.2486,438.48993,773.3099C438.4514,773.37115,438.44702,773.44794,438.47836,773.5132C438.5342,773.62946,438.63995,773.8057,438.81265,774.046L438.81204,774.047C438.82205,774.0616,438.8339,774.0755,438.84714,774.08765L438.84277,774.0886C443.47772,780.45734,486.90903,823.0073,520.8178,848.1034C554.8026,873.25574,579.2232,880.87683,603.64246,888.4975L603.6424,888.4985C628.1791,897.37994,652.7148,906.262,683.2334,915.5476C686.5495,916.5566,690.04865,917.6039,693.4892,918.6335L693.48926,918.63446L693.5044,918.63806L693.52014,918.6428L693.5207,918.643C721.6871,927.07227,753.2761,936.52905,777.7251,952.74493C793.8468,963.43756,806.8639,977.069,815.1057,985.7003L815.1091,985.7038L815.10913,985.7048C815.1276,985.72327,815.1349,985.73083,815.1537,985.7504C819.66016,990.4697,822.73914,993.6922,824.1044,994.0874C824.19434,994.11346,824.28204,994.13,824.36597,994.13C824.6557,994.13,824.7968,993.93787,824.8633,993.7083L824.8716,993.6498L824.8716,993.64966L824.87866,993.65063C824.88,993.6438,824.8813,993.63794,824.88257,993.6319L824.8826,993.6329C825.8364,989.26465,809.7516,954.7375,788.08435,931.7641C767.61664,910.06244,742.1591,898.6593,722.37976,890.1089L722.3725,890.10986C722.36163,890.1015,722.3499,890.09503,722.3375,890.08966L720.42456,889.2635L720.4245,889.26447L718.5871,888.47L718.58685,888.4698C715.77484,887.2541,713.084,886.0823,710.5189,884.9651L710.51886,884.96606C710.4024,884.9143,710.51746,884.9644,710.4013,884.9139L710.40137,884.91486C694.57104,878.01886,682.7733,872.88025,667.13586,868.1476C663.7964,867.13696,660.28204,866.14484,656.6454,865.16516C648.5742,862.9909,639.8964,860.87665,631.19855,858.75757L631.1972,858.75726L631.1915,858.7559L631.1916,858.7569C622.45087,856.6265,613.6537,854.48303,605.45123,852.2734C596.1413,849.76544,587.54987,847.1602,579.3791,844.68256L579.37897,844.68353L579.3755,844.68146L579.37256,844.68054L579.3689,844.67944L579.36584,844.6785C569.93713,841.8193,561.06744,839.1296,552.2703,836.946L552.2703,836.94604C550.1962,836.43115,548.1244,835.944,546.0402,835.454C531.62177,832.064,516.50287,828.50977,494.3394,814.2968C480.76126,805.5895,464.53638,792.8792,453.0765,783.9017C445.4897,777.9582,440.00275,773.6623,438.74185,773.22314L438.67258,773.2114 Z"/>
</g>
<g style="fill:url(#grad1); fill-opacity:1.0; stroke-linejoin: miter">
<path d="M474.69638,887.26965C474.6103,887.26965,474.53287,887.322,474.5009,887.402C474.4689,887.48193,474.4888,887.5733,474.55112,887.6327C490.49475,902.8247,506.65604,917.96674,531.94025,930.9877C557.84076,944.3259,593.3118,955.4369,627.30273,961.9357C630.45135,962.5377,633.5998,963.1023,636.72046,963.631C652.7005,966.3382,668.29034,968.16437,683.1619,969.9064L683.16223,969.90735L683.172,969.9076L683.1837,969.90906L683.18536,969.9093C696.7531,971.4983,709.71625,973.01697,721.85583,975.0736C749.6516,979.7825,773.0722,987.3048,796.4548,994.8545C796.47595,994.8613,796.49774,994.8647,796.5194,994.8647C796.5634,994.8647,796.6069,994.8509,796.6434,994.82434C796.6978,994.7847,796.73004,994.72144,796.73004,994.6541L796.73004,994.65314C796.73004,994.6022,796.71155,994.5529,796.678,994.5145C788.5102,985.1719,780.28345,975.86346,768.8557,968.5942C757.21936,961.19214,742.26776,955.9063,718.1522,948.3308C694.0374,940.7556,660.7538,930.8895,627.5625,925.51166C612.85187,923.1282,598.1561,921.62585,584.1204,920.1911L584.11993,920.19104L584.1071,920.18976L584.107,920.19073C566.47986,918.38776,549.88666,916.69104,535.5959,913.48706C510.57568,907.87756,492.60315,897.64734,474.807,887.2982L474.70114,887.26965 Z"/>
</g>
<g style="fill:url(#grad1); fill-opacity:1.0; stroke-linejoin: miter">
<path d="M438.64746,811.2863C438.57135,811.2863,438.50116,811.3274,438.46387,811.39374C438.42657,811.4601,438.42804,811.54144,438.46762,811.60645C447.41165,826.2923,456.51398,841.01483,473.70035,857.5687C491.22824,874.45166,517.1652,893.2398,544.8469,903.1951C572.1182,913.00287,601.0829,914.2372,630.0669,915.34546C630.0696,915.3456,630.07227,915.34564,630.07495,915.34564C630.1293,915.34564,630.1817,915.3245,630.221,915.28674C630.26227,915.2471,630.2855,915.19226,630.2855,915.135L630.2855,915.13403C630.2855,915.0436,630.2277,914.9632,630.14197,914.9344C606.07275,906.8534,582.08167,898.7629,562.4431,890.01184C547.2223,883.22943,534.61615,876.0498,524.3409,869.9839C522.7088,869.02045,521.118,868.07465,519.6033,867.1739L519.6034,867.17487C519.6034,867.1739,519.5547,867.14496,519.52997,867.1303L519.5299,867.1313L519.45264,867.08435L519.4525,867.0842L519.3754,867.03845L519.3753,867.0394C517.98773,866.2133,516.6809,865.4363,515.3878,864.67303L515.38776,864.674L515.38135,864.6692L515.38007,864.6684C512.9251,863.2192,510.60495,861.87,508.4181,860.59863L508.41803,860.5996L508.4086,860.59314L508.40845,860.593L508.2163,860.4813C500.15497,855.7942,493.33173,851.8184,483.7584,845.1497C471.69638,836.7474,455.2745,824.0734,438.7806,811.33026C438.74374,811.30176,438.69846,811.2863,438.65186,811.2863 Z"/>
</g>
<g style="fill:url(#grad1); fill-opacity:1.0; stroke-linejoin: miter">
<path d="M507.6299,949.9025C507.55215,949.9025,507.4807,949.9454,507.44412,950.014C507.40753,950.0826,507.41168,950.1658,507.455,950.23035C513.64136,959.46,519.87054,968.6605,528.05426,976.47394C536.4197,984.461,546.825,990.9961,561.8528,997.4888C576.88043,1003.9813,596.5301,1010.4317,612.6671,1013.37067C619.30493,1014.5796,625.34735,1015.1942,631.5283,1015.1942C640.3737,1015.1942,649.50146,1013.9349,661.0541,1011.35693C680.42584,1007.034,706.61487,999.0045,732.8963,990.9268L732.8938,990.9278C732.9985,990.9097,733.0745,990.81714,733.0702,990.7105C733.0658,990.6018,732.9793,990.5143,732.87067,990.50867C703.7089,988.9999,674.61847,987.4867,652.2809,985.6527C630.1608,983.8366,614.6529,981.70557,599.51953,979.62604L599.51935,979.627L598.5436,979.49286L598.5376,979.49384C598.5287,979.4904,598.51953,979.4886,598.51013,979.4873L598.0944,979.43115L598.08844,979.4321C598.0799,979.4289,598.0711,979.42706,598.06213,979.42584L597.5664,979.3577C582.4358,977.27905,567.54254,975.20294,552.65485,970.331C537.67804,965.4299,522.7059,957.6991,507.73203,949.9262L507.635,949.9025 Z"/>
</g>
<g style="fill:url(#grad1); fill-opacity:1.0; stroke-linejoin: miter">
<path d="M760.27966,1002.21436C754.37335,1002.21436,748.52875,1002.6184,742.768,1003.532C722.51215,1006.7443,703.2612,1016.2577,685.62964,1024.9708L685.6299,1024.9718L685.62476,1024.9733L685.61707,1024.9769L685.61426,1024.9783C679.07025,1028.2125,672.75385,1031.3336,666.6859,1033.9846C644.267,1043.7784,625.3074,1047.1176,604.8243,1047.8087C601.94165,1047.906,599.05133,1047.9506,596.1129,1047.9506C578.475,1047.9506,559.8932,1046.3256,541.3026,1044.6741L541.284,1044.6732L541.27856,1044.6742C541.18115,1044.6732,541.0965,1044.74,541.0738,1044.8347C541.0511,1044.9294,541.0963,1045.0273,541.1831,1045.0715C550.1872,1049.6523,559.4908,1054.1168,578.2894,1054.8525C580.24023,1054.9288,582.3009,1054.9652,584.4461,1054.9652C603.6395,1054.9652,630.1858,1052.0758,656.73865,1049.1859L656.7381,1049.1869L656.74066,1049.1857L656.7395,1049.1858L656.7397,1049.1868L657.04144,1049.1622C657.0466,1049.1619,657.0517,1049.1613,657.0567,1049.1605L657.0501,1049.1615C676.01746,1047.6237,694.9677,1046.0658,710.9828,1040.48C717.73975,1038.1233,723.96893,1035.0518,730.3549,1031.9032C737.06104,1028.5967,743.9424,1025.2045,751.7725,1022.47345C754.2586,1021.6063,756.8222,1020.81116,759.5247,1020.1003C778.48413,1015.1132,803.4105,1014.55707,828.454,1014.0842L828.4746,1014.08276L828.4829,1014.0818C828.58386,1014.0699,828.6619,1013.9877,828.66846,1013.8862C828.675,1013.7848,828.6081,1013.6932,828.5095,1013.66846C805.45416,1007.88654,782.41626,1002.21436,760.27966,1002.21436 Z"/>
</g>
<g style="fill:url(#grad1); fill-opacity:1.0; stroke-linejoin: miter">
<path d="M759.4123,1041.522L759.30774,1041.5498L624.12415,1118.8779L624.10333,1118.8877L624.10114,1118.8887C599.6514,1127.8821,575.2114,1136.8726,549.32135,1143.7706C523.6564,1150.6086,496.56647,1155.3887,469.471,1160.1504C469.36343,1160.1693,469.28818,1160.2673,469.29767,1160.3761C469.30618,1160.4736,469.38037,1160.5509,469.47443,1160.5658L469.46973,1160.5668C479.28763,1163.9525,489.15884,1167.3022,501.1116,1169.0444C513.3492,1170.828,527.7701,1170.927,542.18994,1171.0262L542.19135,1171.0272C542.2098,1171.0262,542.228,1171.0238,542.24554,1171.0192L542.2415,1171.0201C571.56824,1163.8331,600.9001,1156.6426,637.3937,1134.8936C673.4303,1113.4167,716.4473,1077.7463,759.5545,1041.8954C759.6026,1041.8553,759.63043,1041.7961,759.63043,1041.7335L759.63043,1041.7325C759.63043,1041.6162,759.53613,1041.522,759.41986,1041.522 Z"/>
</g>
<g style="fill:url(#grad1); fill-opacity:1.0; stroke-linejoin: miter">
<path d="M815.239,1031.1569L815.12573,1031.19L743.2447,1077.055L743.24347,1077.056C743.2407,1077.0568,743.238,1077.0586,743.2353,1077.0605C723.25366,1091.1864,703.2691,1105.3158,684.489,1127.9037C665.7069,1150.494,648.12823,1181.5468,641.095,1206.4506C634.0611,1231.3567,637.57355,1250.1152,646.507,1264.79C655.4405,1279.4648,669.7931,1290.0536,690.35077,1298.0062C710.58966,1305.8357,736.8439,1311.1101,763.1885,1316.3457C763.2021,1316.3484,763.2159,1316.3497,763.22955,1316.3497C763.27783,1316.3497,763.3252,1316.3331,763.36316,1316.3019C763.41187,1316.2618,763.4401,1316.2021,763.4401,1316.1392L763.4401,1316.1382C763.4401,1316.0605,763.39734,1315.9891,763.32825,1315.9521L763.30133,1315.9379L763.3013,1315.9388C737.04785,1301.8936,710.95825,1287.8322,695.8924,1272.3933C680.6101,1256.7328,676.67084,1239.6543,679.67487,1218.2316C682.6791,1196.8074,692.6278,1171.0396,708.2897,1147.4388C723.4864,1124.539,744.05963,1103.6813,762.62646,1084.9591L763.4775,1084.1011L763.47736,1084.102L764.328,1083.2443C764.3283,1083.2439,764.3287,1083.2437,764.329,1083.2433L764.32806,1083.2443L764.3702,1083.2008C782.8909,1064.5248,799.18915,1047.9758,815.3972,1031.5151C815.4567,1031.4547,815.4742,1031.3644,815.4414,1031.2861C815.4086,1031.2079,815.3321,1031.1569,815.2472,1031.1569 Z"/>
</g>
<g style="fill:url(#grad1); fill-opacity:1.0; stroke-linejoin: miter">
<path d="M942.70074,979.2161C942.6426,979.2161,942.587,979.2402,942.5472,979.2826C929.832,992.8341,917.09357,1006.2857,902.3334,1012.7672C896.69104,1015.24493,890.7555,1016.7034,884.2533,1018.30066L884.25354,1018.30164L884.24023,1018.3039L884.23975,1018.30396C876.37244,1020.23645,867.6819,1022.3713,857.6963,1026.7561L857.69543,1026.7565L857.69214,1026.7579C854.05133,1028.3568,850.2307,1030.2588,846.22266,1032.5559C822.129,1046.3639,790.99097,1074.5725,765.5277,1103.334C740.2447,1131.8917,720.55096,1160.9999,700.8997,1190.1093L700.9009,1190.1102L700.90314,1190.1135L700.8962,1190.1145C700.87494,1190.1464,700.8627,1190.1855,700.8627,1190.2275L700.8637,1190.2285C700.86383,1190.278,700.882,1190.3281,700.9176,1190.3678C700.9478,1190.4015,700.98694,1190.4235,701.02875,1190.4327L701.0218,1190.4337C701.03894,1190.437,701.05634,1190.4391,701.07355,1190.4391C701.1094,1190.4391,701.1444,1190.43,701.1752,1190.4132L701.17267,1190.4142L701.4477,1190.2678C730.3244,1175.0063,759.1828,1159.7294,786.6285,1142.8405C814.37146,1125.7686,840.66486,1107.0535,863.9368,1089.1154C887.2082,1071.1777,907.45825,1054.017,920.1512,1035.7496C932.68353,1017.7133,937.8456,998.602,942.91376,979.48065C942.9305,979.4175,942.91693,979.3501,942.8771,979.2983C942.8372,979.24646,942.7756,979.2161,942.7102,979.2161 Z"/>
</g>
<g style="fill:url(#grad1); fill-opacity:1.0; stroke-linejoin: miter">
<path d="M901.3581,871.62396L901.3586,871.62683L901.35834,871.6278L901.35785,871.62396 Z M874.0393,1011.7449L874.03925,1011.74493L874.03925,1011.7449 Z M882.8215,828.8554C882.65295,828.8554,882.51636,828.992,882.51636,829.1605L882.5164,829.1615C882.5164,829.1639,882.5164,829.1673,882.51654,829.17065C882.64874,833.56165,882.86694,837.9835,885.05273,842.6416C885.616,843.84204,886.31085,845.0594,887.08124,846.2807C888.2646,848.1567,889.62714,850.0451,890.98627,851.9293L890.9862,851.9303L891.0442,852.00977L891.0443,852.0099C892.3711,853.8491,893.6953,855.68866,894.82837,857.4851C897.85785,862.2877,899.58167,866.86523,901.2929,871.4523C896.1341,870.7771,891.0037,870.067,885.9252,866.2743C880.932,862.5453,875.9816,855.83136,871.0195,849.0074C870.96204,848.9284,870.8703,848.8817,870.7727,848.8817L870.76404,848.8827C870.67584,848.8817,870.5919,848.9199,870.534,848.98645C870.4761,849.053,870.44977,849.1413,870.46185,849.2287C871.3075,855.3324,872.3182,861.4506,877.38226,867.26654C882.6064,873.26624,892.1449,878.93896,901.69116,884.59375L901.6822,884.5947C896.6021,885.8255,891.52576,887.0317,885.7888,887.0317C885.7372,887.0317,885.66516,887.0318,885.60767,887.03204C885.6005,887.0315,885.5934,887.03125,885.5862,887.0312C879.7788,887.0024,873.288,885.7295,866.76996,884.42944L866.71027,884.4235L866.7016,884.4245C866.5954,884.4235,866.4968,884.47876,866.4414,884.56934C866.386,884.6599,866.3816,884.77277,866.4303,884.86816L866.4369,884.881C869.6161,891.10736,872.7753,897.34576,875.094,904.53156C877.4582,911.8585,878.9509,920.1797,880.083,931.2875C881.21533,942.39746,881.9863,956.28564,880.8511,970.1798C879.72974,983.90326,876.74774,997.6351,873.74133,1011.3745C873.72156,1011.4647,873.7438,1011.5591,873.8017,1011.63104C873.85205,1011.6936,873.9247,1011.7334,874.0035,1011.74274L873.9947,1011.7437C873.99945,1011.74347,874.0042,1011.744,874.00903,1011.7445C874.0192,1011.74554,874.0294,1011.74603,874.0395,1011.74603C874.1092,1011.74603,874.17474,1011.72235,874.22675,1011.6831L874.2234,1011.6841C880.4067,1007.0085,886.7373,1002.189,899.7334,990.8106C913.0138,979.1833,933.26825,960.69415,953.5139,942.2129L953.5182,942.21387L953.5449,942.2021L953.5453,942.2019C971.3755,934.9697,989.176,927.75757,1004.5043,927.5771C1004.51196,927.577,1004.5196,927.5766,1004.52716,927.576L1004.5171,927.57697C1004.7003,927.57385,1004.9195,927.57263,1005.10016,927.57263C1020.04803,927.57263,1032.6669,934.22723,1045.2946,940.95654C1045.3395,940.98047,1045.3888,940.9924,1045.438,940.9924C1045.4924,940.9924,1045.5468,940.97784,1045.595,940.9489C1045.6869,940.8938,1045.743,940.7945,1045.743,940.6873L1045.743,940.68634L1045.7411,940.65186C1045.0363,934.4612,1044.2484,928.2285,1039.2094,920.8069C1034.0863,913.2617,1024.5686,904.48846,1015.0601,895.727L1015.05,895.72797C1014.437,891.6139,1013.81445,887.4743,1010.03375,883.0607C1006.24774,878.6409,999.3059,873.9585,986.15784,870.2992C973.0147,866.6413,953.6593,864.0033,934.31384,861.3665L934.3134,861.3675L934.3069,861.3655L934.29346,861.363L934.2748,861.3595C923.9402,859.4359,913.6341,857.51117,905.0532,852.0449C896.6334,846.6812,889.8662,837.9029,883.1172,829.0346L883.10834,829.0356C883.0604,828.9289,882.954,828.8554,882.8303,828.8554 Z"/>
</g>
</g>
</g>
<g style="fill:rgb(0,0,0); fill-opacity:1.0; stroke-linejoin: miter">
<path d="M877.83215,1664.2266Q875.7336,1664.2266,873.5001,1664.4297L873.4999,1664.4297Q841.8187,1667.1267,837.2382,1667.6665L837.23535,1667.6665Q829.9787,1668.1967,817.2264,1670.8657L817.2182,1670.8657Q809.76117,1671.2256,808.48785,1671.5912L808.4786,1671.5912Q797.0678,1673.4038,796.4599,1673.797L796.46313,1673.797Q794.1387,1674.2184,786.70447,1679.191L786.69867,1679.191Q784.6219,1680.1383,779.4811,1680.815C779.37177,1680.8293,779.29486,1680.9296,779.30927,1681.0388C779.3225,1681.1393,779.40826,1681.2124,779.5069,1681.2124C779.51556,1681.2124,779.52435,1681.2119,779.5332,1681.2107Q784.7746,1680.5209,786.89923,1679.538L786.9264,1679.5228Q794.3665,1674.5461,796.5759,1674.1825C796.6148,1674.1761,796.6506,1674.1584,796.6791,1674.132L796.6767,1674.132Q797.21454,1673.784,808.5742,1671.98L808.59796,1671.9747Q809.82794,1671.6216,817.25726,1671.2634L817.2557,1671.2634L817.2618,1671.2632L817.2947,1671.2592Q830.04144,1668.5908,837.2761,1668.0636L837.285,1668.0627Q841.8545,1667.5242,873.5351,1664.8273L873.53625,1664.8271Q875.75104,1664.6257,877.8312,1664.6257Q878.5243,1664.6257,879.2024,1664.6481L879.2019,1664.6481Q882.53406,1664.8378,883.1152,1664.9797L883.12317,1664.9814Q890.5047,1666.4673,894.3488,1666.7108L894.35205,1666.711Q908.6383,1667.383,932.0426,1669.8392L932.04297,1669.8392Q936.7782,1670.3795,943.2971,1671.741L943.3068,1671.7428Q959.3784,1674.2773,988.0686,1687.2627C988.0953,1687.2748,988.1232,1687.2805,988.15076,1687.2805C988.2267,1687.2805,988.2993,1687.2369,988.33264,1687.1632C988.37805,1687.0629,988.33356,1686.9446,988.23315,1686.8992Q959.5037,1673.896,943.38055,1671.3503L943.37866,1671.3503Q936.8402,1669.9849,932.086,1669.4425L932.0842,1669.4423Q908.6732,1666.9854,894.37604,1666.3126L894.3741,1666.3126Q890.5589,1666.0709,883.2104,1664.592L883.2099,1664.592Q882.593,1664.4414,879.22034,1664.2494L879.2156,1664.2491Q878.5314,1664.2266,877.83215,1664.2266 Z"/>
</g>
</g>
<defs>
<linearGradient id="grad1" gradientUnits="userSpaceOnUse" x1="898.38184" y1="814.3597" x2="485.5223" y2="1346.8081" >
<stop offset="0.0%" style="stop-color:rgb(241,67,52); stop-opacity:1.0" />
<stop offset="100.0%" style="stop-color:rgb(63,79,181); stop-opacity:1.0" />
</linearGradient>
<linearGradient id="grad0" gradientUnits="userSpaceOnUse" x1="978.22003" y1="578.6887" x2="482.86633" y2="1209.2153" >
<stop offset="0.0%" style="stop-color:rgb(243,67,54); stop-opacity:1.0" />
<stop offset="100.0%" style="stop-color:rgb(63,80,181); stop-opacity:1.0" />
</linearGradient>
</defs>
</svg>